<svg width="21" height="21" viewBox="0 0 21 21" fill="none" xmlns="http://www.w3.org/2000/svg">
<path d="M16.7338 4.96153H16.3934L13.5168 2.08494C13.287 1.85515 12.9126 1.85515 12.6743 2.08494C12.4445 2.31473 12.4445 2.68919 12.6743 2.92749L14.7083 4.96153H6.43596L8.47 2.92749C8.69979 2.6977 8.69979 2.32324 8.47 2.08494C8.24022 1.85515 7.86575 1.85515 7.62745 2.08494L4.75937 4.96153H4.41894C3.65298 4.96153 2.06149 4.96153 2.06149 7.14026C2.06149 7.96579 2.23171 8.51047 2.58915 8.86792C2.79341 9.08068 3.04022 9.19132 3.30405 9.25089C3.55085 9.31047 3.81468 9.31898 4.07 9.31898H17.0743C17.3381 9.31898 17.5849 9.30196 17.8232 9.25089C18.5381 9.08068 19.0828 8.57004 19.0828 7.14026C19.0828 4.96153 17.4913 4.96153 16.7338 4.96153Z" fill="#292D32"/>
<path d="M16.5721 10.4253H4.50406C3.9764 10.4253 3.5764 10.8934 3.66151 11.4125L4.3764 15.787C4.6147 17.2508 5.253 18.9359 8.08704 18.9359H12.8615C15.7296 18.9359 16.2402 17.4976 16.5466 15.8891L17.4062 11.4381C17.5083 10.9104 17.1083 10.4253 16.5721 10.4253ZM10.5721 16.8083C8.58066 16.8083 6.95512 15.1827 6.95512 13.1913C6.95512 12.8423 7.24448 12.553 7.59342 12.553C7.94236 12.553 8.23172 12.8423 8.23172 13.1913C8.23172 14.4849 9.27853 15.5317 10.5721 15.5317C11.8658 15.5317 12.9126 14.4849 12.9126 13.1913C12.9126 12.8423 13.2019 12.553 13.5509 12.553C13.8998 12.553 14.1892 12.8423 14.1892 13.1913C14.1892 15.1827 12.5636 16.8083 10.5721 16.8083Z" fill="#292D32"/>
</svg>
