<svg width="16" height="15" viewBox="0 0 16 15" fill="none" xmlns="http://www.w3.org/2000/svg">
<g clip-path="url(#clip0_2_746)">
<rect width="14.8094" height="14.1923" transform="translate(0.946518 0.403809)" fill="#E9E9E9"/>
<path d="M0.946518 2.05265C0.946518 1.57479 1.11329 1.18056 1.44683 0.869961C1.78037 0.559351 2.21399 0.404053 2.74766 0.404053C3.2718 0.404053 3.69587 0.556957 4.01989 0.862793C4.35343 1.17818 4.52021 1.58912 4.52021 2.09566C4.52021 2.5544 4.3582 2.93667 4.03418 3.24251C3.70065 3.55789 3.26227 3.71559 2.71907 3.71559H2.70477C2.18063 3.71559 1.75656 3.55789 1.43254 3.24251C1.10852 2.92713 0.946518 2.5305 0.946518 2.05265ZM1.13235 14.5963V5.02013H4.30578V14.5963H1.13235ZM6.06404 14.5963H9.23747V9.24914C9.23747 8.91463 9.2756 8.65659 9.35183 8.47502C9.48525 8.15007 9.68776 7.8753 9.95936 7.65072C10.231 7.42612 10.5716 7.31383 10.9814 7.31383C12.0488 7.31383 12.5824 8.03539 12.5824 9.47851V14.5963H15.7559V9.10579C15.7559 7.69133 15.4223 6.61855 14.7552 5.88743C14.0882 5.15632 13.2067 4.79076 12.1107 4.79076C10.8814 4.79076 9.92362 5.32118 9.23747 6.38201V6.41069H9.22318L9.23747 6.38201V5.02013H6.06404C6.08309 5.32595 6.09263 6.27688 6.09263 7.87292C6.09263 9.46895 6.08309 11.7101 6.06404 14.5963Z" fill="#121212"/>
</g>
<defs>
<clipPath id="clip0_2_746">
<rect width="14.8094" height="14.1923" fill="white" transform="translate(0.946518 0.403809)"/>
</clipPath>
</defs>
</svg>
