<svg width="30" height="26" viewBox="0 0 30 26" fill="none" xmlns="http://www.w3.org/2000/svg">
<path d="M15.036 25.7548C14.7747 25.7548 14.5131 25.7075 14.2512 25.613C13.9892 25.5184 13.7587 25.371 13.5596 25.1707L11.8483 23.6058C8.84563 20.8558 6.24702 18.2274 4.05242 15.7207C1.85781 13.214 0.760498 10.6318 0.760498 7.97411C0.760498 5.91676 1.4562 4.19426 2.84759 2.80661C4.23899 1.41894 5.9587 0.725098 8.00673 0.725098C9.17921 0.725098 10.385 1.02174 11.624 1.61501C12.8631 2.20829 14.0052 3.28666 15.0505 4.85014C16.1825 3.28666 17.34 2.20829 18.5232 1.61501C19.7063 1.02174 20.8966 0.725098 22.0942 0.725098C24.1422 0.725098 25.8619 1.41894 27.2533 2.80661C28.6447 4.19426 29.3404 5.91676 29.3404 7.97411C29.3404 10.6606 28.219 13.2645 25.9762 15.7856C23.7334 18.3068 21.1589 20.9087 18.2527 23.5914L16.5178 25.1795C16.3225 25.3767 16.094 25.5219 15.8322 25.615C15.5704 25.7082 15.305 25.7548 15.036 25.7548ZM14.3041 6.74816C13.5212 5.35969 12.5782 4.29237 11.4751 3.54622C10.372 2.80007 9.21587 2.427 8.00673 2.427C6.39066 2.427 5.06338 2.94864 4.0249 3.99191C2.98642 5.03516 2.46718 6.36655 2.46718 7.98607C2.46718 9.29347 2.87259 10.6515 3.6834 12.0601C4.49425 13.4688 5.51296 14.8659 6.73955 16.2514C7.96613 17.637 9.29681 18.9832 10.7316 20.2899C12.1664 21.5966 13.5047 22.8125 14.7467 23.9375C14.8335 24.0241 14.9347 24.0673 15.0505 24.0673C15.1662 24.0673 15.2674 24.0241 15.3542 23.9375C16.5962 22.8279 17.9346 21.6159 19.3694 20.3014C20.8041 18.987 22.1333 17.6312 23.3569 16.2341C24.5805 14.837 25.5992 13.434 26.413 12.0252C27.2268 10.6163 27.6337 9.26755 27.6337 7.97887C27.6337 6.36415 27.1103 5.03516 26.0634 3.99191C25.0164 2.94864 23.6921 2.427 22.0904 2.427C20.8587 2.427 19.6976 2.79622 18.6071 3.53467C17.5165 4.27315 16.5643 5.34431 15.7505 6.74816C15.6541 6.90009 15.5451 7.01259 15.4236 7.08566C15.3021 7.15874 15.1676 7.19527 15.0201 7.19527C14.8726 7.19527 14.7342 7.15874 14.605 7.08566C14.4758 7.01259 14.3755 6.90009 14.3041 6.74816Z" fill="black"/>
</svg>
