<svg width="18" height="19" viewBox="0 0 18 19" fill="none" xmlns="http://www.w3.org/2000/svg">
<g clip-path="url(#clip0_2_751)">
<rect x="0.139404" y="0.82666" width="17.3462" height="17.3462" rx="8.67308" fill="#E9E9E9"/>
<path d="M16.7628 7.84454C16.7985 6.81002 16.5723 5.78325 16.1051 4.85955C15.7881 4.48054 15.3482 4.22476 14.862 4.1368C12.8509 3.95432 10.8315 3.87953 8.81248 3.91274C6.80079 3.87802 4.78869 3.9504 2.78469 4.12957C2.38849 4.20164 2.02184 4.38748 1.72947 4.66441C1.07899 5.2643 1.00671 6.29061 0.934437 7.15792C0.829573 8.71731 0.829573 10.282 0.934437 11.8414C0.955346 12.3295 1.02803 12.8141 1.15126 13.2869C1.23841 13.6519 1.41472 13.9897 1.66442 14.2698C1.95878 14.5614 2.33397 14.7579 2.74133 14.8336C4.29953 15.0259 5.86957 15.1056 7.43924 15.0721C9.96889 15.1082 12.1878 15.0721 14.8114 14.8697C15.2287 14.7986 15.6145 14.602 15.9172 14.306C16.1195 14.1035 16.2707 13.8558 16.3581 13.5832C16.6165 12.7901 16.7435 11.96 16.7339 11.1258C16.7628 10.7211 16.7628 8.27819 16.7628 7.84454ZM7.17905 11.5595V7.08564L11.4578 9.33341C10.258 9.99835 8.67516 10.75 7.17905 11.5595Z" fill="#121212"/>
</g>
<defs>
<clipPath id="clip0_2_751">
<rect x="0.139404" y="0.82666" width="17.3462" height="17.3462" rx="8.67308" fill="white"/>
</clipPath>
</defs>
</svg>
